<svg width="25" height="24" viewBox="0 0 25 24" fill="none" xmlns="http://www.w3.org/2000/svg">
<path d="M2.66016 9.49955C2.66018 8.38675 2.99775 7.30014 3.62829 6.38322C4.25883 5.4663 5.15267 4.76221 6.19176 4.36395C7.23086 3.96569 8.36631 3.892 9.44817 4.1526C10.53 4.4132 11.5074 4.99583 12.2512 5.82355C12.3035 5.87957 12.3669 5.92422 12.4372 5.95475C12.5076 5.98528 12.5835 6.00104 12.6602 6.00104C12.7368 6.00104 12.8127 5.98528 12.8831 5.95475C12.9534 5.92422 13.0168 5.87957 13.0692 5.82355C13.8106 4.99045 14.7882 4.40292 15.8718 4.13915C16.9554 3.87539 18.0936 3.9479 19.135 4.34704C20.1764 4.74617 21.0715 5.453 21.7013 6.37345C22.331 7.2939 22.6655 8.38431 22.6602 9.49955C22.6602 11.7896 21.1602 13.4996 19.6602 14.9996L14.1682 20.3126C13.9818 20.5266 13.7521 20.6985 13.4942 20.8169C13.2363 20.9352 12.9562 20.9974 12.6724 20.9992C12.3887 21.001 12.1078 20.9424 11.8484 20.8273C11.5891 20.7122 11.3572 20.5432 11.1682 20.3316L5.66016 14.9996C4.16016 13.4996 2.66016 11.7996 2.66016 9.49955Z" stroke="#00D4AA" stroke-width="2" stroke-linecap="round" stroke-linejoin="round"/>
</svg>
