<svg width="40" height="40" viewBox="0 0 40 40" fill="none" xmlns="http://www.w3.org/2000/svg">
<path d="M34.9748 20.8103C34.8186 23.7039 33.8276 26.4903 32.1216 28.8327C30.4156 31.1751 28.0676 32.9731 25.3615 34.0096C22.6554 35.046 19.707 35.2764 16.8727 34.6729C14.0385 34.0694 11.4397 32.6579 9.39054 30.6089C7.34139 28.56 5.92959 25.9614 5.3258 23.1272C4.72202 20.293 4.9521 17.3446 5.98824 14.6384C7.02438 11.9321 8.82221 9.58399 11.1644 7.87773C13.5066 6.17148 16.2929 5.18018 19.1864 5.02367C19.8614 4.98701 20.2148 5.79034 19.8564 6.36201C18.6579 8.2796 18.1447 10.5468 18.4006 12.7936C18.6565 15.0404 19.6663 17.1341 21.2653 18.7331C22.8643 20.3321 24.9581 21.342 27.2049 21.5978C29.4517 21.8537 31.7189 21.3405 33.6364 20.142C34.2098 19.7837 35.0114 20.1353 34.9748 20.8103Z" stroke="#00D4AA" stroke-width="3.33333" stroke-linecap="round" stroke-linejoin="round"/>
</svg>
